<?xml version="1.0" encoding="iso-8859-1"?>
<!-- Generator: Adobe Illustrator 25.4.1, SVG Export Plug-In . SVG Version: 6.00 Build 0)  -->
<svg version="1.1" id="Layer_1" xmlns="http://www.w3.org/2000/svg" xmlns:xlink="http://www.w3.org/1999/xlink" x="0px" y="0px"
	 viewBox="0 0 7500 5000" style="enable-background:new 0 0 7500 5000;" xml:space="preserve">
<rect style="fill:none;" width="7500" height="5000"/>
<g>
	<path style="fill:#FFFFFF;" d="M5746.188,2752.923l44.236-77.034l48.34-41.34c274.068-234.379,547.083-574.685,632.088-787.882
		c25.196-63.195,36.756-120.455,28.393-140.645c-9.05-21.848-29.594-26.55-56.791-12.998
		c-19.851,9.892-68.345,56.076-106.196,101.138c-127.118,151.334-323.133,438.685-509.078,746.291l-51.174,84.656l-47.719,36.043
		c-61.612,46.537-133.375,94.349-167.368,111.51c-14.771,7.457-27.384,13.031-28.029,12.386
		c-1.847-1.847,8.354-13.845,54.063-63.583c47.635-51.836,57.418-64.25,60.398-76.645c2.854-11.869-2.93-27.282-13.61-36.268
		c-10.548-8.876-30.533-10.298-44.346-3.155c-9.837,5.087-71.211,70.534-101.871,108.631c-11.422,14.193-25.182,33.96-30.578,43.927
		c-8.799,16.252-9.805,20.646-9.833,42.586c-0.025,28.802,4.539,37.42,25.482,48.122c18.13,9.264,36.341,8.68,65.915-2.112
		c34.531-12.603,74.233-36.83,141.422-86.301c14.467-10.652,26.766-18.857,27.331-18.234c0.565,0.624-9.742,19.991-22.905,43.04
		c-56.992,99.797-135.452,243.074-190.96,348.716c-18.598,35.395-45.939,85.233-60.758,110.751
		c-36.785,63.344-92.186,173.369-100.621,199.835c-8.905,27.937-7.225,40.558,7.167,53.845h0.001
		c7.771,7.174,13.329,9.728,21.176,9.728c18.89,0,42.832-16.218,47.721-32.324c2.495-8.22-4.429-20.212-13.294-23.026
		c-3.336-1.059-6.066-3.44-6.066-5.291c0-6.135,39.49-95.685,65.657-148.887C5554.001,3095.858,5618.556,2975.184,5746.188,2752.923
		z M5916.516,2466.942c197.839-319.154,386.729-588.571,483.935-690.246c27.937-29.221,54.762-52.755,60.134-52.755
		c4.645,0,3.01,21.526-3.413,44.959c-26.17,95.472-88.161,208.596-186.96,341.173c-98.307,131.916-226.816,276.425-336.792,378.724
		l0,0c-49.564,46.105-62.778,57.448-62.778,53.895C5870.642,2541.732,5891.285,2507.644,5916.516,2466.942z"/>
	<path style="fill:#FFFFFF;" d="M5699.586,2500.923c15.888-8.216,73.896-59.147,86.495-75.942
		c16.049-21.395,17.069-34.365,3.885-49.381c-9.733-11.085-25.512-17.084-44.938-17.084c-24.067,0-42.907,14.305-52.077,39.542
		c-2.566,7.062-10.106,27.561-16.756,45.554c-12.292,33.257-14.967,51.514-8.499,57.982h0
		C5672.583,2506.48,5689.531,2506.123,5699.586,2500.923z"/>
	<path style="fill:#FFFFFF;" d="M6484.293,2744.049c-0.098,22.877,22.806,36.907,49.342,30.225
		c19.975-5.03,51.499-26.858,91.881-63.621c19.245-17.521,35.746-31.856,36.667-31.856c0.922,0,1.676,5.878,1.676,13.061
		c0,38.447,17.253,79.258,43.743,103.468c19.124,17.478,56.018,36.26,84.967,43.255c107.424,25.956,285.885,0.307,406.143-58.372
		c86.185-42.053,143.124-106.006,146.91-165.007c1.894-29.514-3.165-51.284-19.528-84.028
		c-18.464-36.949-56.799-76.121-90.521-92.497c-27.481-13.345-55.047-20.84-64.057-17.414c-19.658,7.474-16.512,23.427,6.222,31.553
		c45.889,16.404,72.438,36.016,95.293,70.395c19.249,28.954,26.555,50.199,26.744,77.762c0.13,19.012-1.173,25.069-8.511,39.549
		c-37.048,73.116-150.333,130.49-304.133,154.03c-51.697,7.912-143.103,7.232-174.071-1.295
		c-43.458-11.967-69.004-29.973-81.318-57.318c-8.473-18.816-10.327-63.126-3.808-91c8.975-38.371,4.344-53.179-18.032-57.655
		c-14.476-2.895-27.479,4.752-64.138,37.721c-56.202,50.543-55.827,50.345-29.18,15.388c26.407-34.643,28.824-46.849,11.093-56.018
		c-15.547-8.04-23.973-3.673-52.146,27.018c-31.763,34.603-49.653,43.423-108.899,53.692l-10.146,1.758l1.713-14.459
		c6.696-56.535-40.008-88.057-98.158-66.249c-14.114,5.293-22.272,11.209-38.1,27.628c-11.078,11.491-26.609,30.437-34.515,42.1
		c-13.43,19.815-15.841,21.831-36.732,30.721c-12.297,5.232-51.632,21.896-87.413,37.03l-65.055,27.516l-29.441-26.438
		c-16.193-14.54-40.497-36.326-54.007-48.414c-13.512-12.087-27.366-27.465-30.789-34.174c-5.72-11.212-5.863-12.944-1.77-21.426
		c8.791-18.215,58.384-40.854,103.232-47.127c28.63-4.003,38.036-1.037,44.309,13.977c3.517,8.417,3.793,14.298,1.375,29.203
		c-4.82,29.7-3.923,45.213,3.129,54.18c11.84,15.052,30.908,7.26,23.862-9.751c-3.06-7.387-2.452-12.262,4.125-33.083
		c12.188-38.578,9.569-61.025-9.17-78.622c-20.151-18.921-60.451-22.573-110.106-9.976c-67.82,17.204-112.535,52.025-112.442,87.566
		c0.04,15.489,11.53,38.545,27.283,54.746c7.204,7.408,28.587,26.428,47.52,42.265c18.933,15.837,38.24,32.867,42.905,37.842
		l8.483,9.046l-28.71,16.896c-43.094,25.363-58.598,41.11-58.598,59.524c0,14.45,16.876,28.79,41.06,34.891l0.002,0.001
		c16.855,4.252,50.969,1.461,70.131-5.739c21.046-7.907,42.877-26.712,47.591-40.993c4.432-13.43,2.282-30.518-5.788-46
		l-6.207-11.908l14.159-7.164c13.046-6.601,127.904-55.736,130.288-55.736c0.577,0,1.242,7.376,1.479,16.391
		c1.184,44.982,36.56,67.892,83.369,53.991c31.218-9.271,74.004-44.688,91.667-75.881c4.975-8.786,10.535-16.391,12.354-16.901
		c8.489-2.377,63.254-9.948,64.311-8.891c0.657,0.657-2.412,5.924-6.821,11.704
		C6496.652,2708.717,6484.331,2735.243,6484.293,2744.049z M6065.164,2844.495l0,0.011c-20.226,8.415-53.174,8.422-55.975,0
		c-0.624-1.875,3.625-7.333,9.443-12.128c11.79-9.718,58.392-38.07,59.847-36.41c3.599,4.105,10.672,21.229,10.672,25.834
		C6089.15,2828.926,6078.619,2838.889,6065.164,2844.495z M6354.339,2733.182c-21.243,13.779-33.682,15.095-36.501,3.861
		c-2.578-10.271,3.71-31.429,14.304-48.135c7.333-11.561,9.754-13.397,15.312-11.599c3.63,1.175,15.298,4.509,25.928,7.409
		c10.629,2.9,19.803,6.701,20.385,8.447C6395.498,2698.358,6373.312,2720.875,6354.339,2733.182z M6413.631,2648.345
		L6413.631,2648.345c-2.566,13.276-3.237,14.022-13.181,14.676c-10.995,0.723-31.311-5.359-37.04-11.088
		c-2.49-2.491,0.134-6.691,10.103-16.17c7.408-7.043,14.884-15.271,16.614-18.286c2.323-4.047,5.161-4.975,10.846-3.548
		C6411.979,2616.691,6417.072,2630.54,6413.631,2648.345z"/>
	<path style="fill:#FFFFFF;" d="M667.716,3728.071c204.937-27.37,435.018-127.443,701.042-304.917
		c151.013-100.746,274.254-205.128,338.132-286.391c27.812-35.381,45.425-87.153,35.798-105.224
		c-13.474-25.29-41.814-16.598-47.58,14.592c-3.916,21.181-13.937,39.699-36.916,68.221
		c-98.477,122.223-400.271,333.324-625.194,437.314c-130.129,60.164-249.257,98.154-357.183,113.906
		c-48.48,7.079-138.572,7.035-177.982-0.084c-33.586-6.067-76.002-19.797-95.429-30.89
		c-105.213-60.077-128.225-183.533-57.313-307.473c58.894-102.932,200.336-208.955,429.502-321.946
		c93.687-46.192,158.398-74.103,333.605-143.885c94.476-37.628,136.326-55.74,144.333-62.462
		c20.394-17.123,22.552-44.754,5.05-64.687c-5.106-5.815-13.921-11.691-20.057-13.369c-6.021-1.647-47.989-4.352-93.262-6.012
		c-215.426-7.899-422.741-34.395-550.763-70.389c-255.662-71.883-391.753-218.012-392.497-421.448
		c-0.305-83.52,17.796-156.322,60.062-241.563c125.445-252.996,456.483-517.224,883.198-704.948
		c349.986-153.969,670.145-214.575,899.12-170.204c127.099,24.63,222.535,82.598,274.199,166.549
		c62.518,101.587,54.645,236.018-23.005,392.813c-37.148,75.012-86.42,149.223-150.046,225.992
		c-48.063,57.992-75.117,86.802-199.571,212.522c-144.753,146.225-168.644,174.704-187.748,223.799
		c-8.963,23.033-8.005,33.676,3.021,33.576c8.54-0.076,11.361-3.448,24.033-28.719c22.093-44.055,44.424-69.324,187.529-212.194
		c131.356-131.141,185.963-189.905,214.677-231.019c7.105-10.173,26.28-35.766,42.61-56.872
		c65.389-84.511,111.218-167.422,139.883-253.067c39.578-118.255,38.024-212.716-4.94-300.152
		c-8.898-18.109-22.313-41.008-29.81-50.886c-60.06-79.134-149.639-131.44-271.268-158.393
		c-142.561-31.591-336.977-20.793-540.037,29.997c-351.153,87.831-743.543,283.911-1004.244,501.828
		c-206.102,172.278-324.517,342.58-362.653,521.558c-6.148,28.855-7.015,41.066-7.015,98.778c0,73.989,2.027,88.651,19.822,143.338
		c21.798,66.991,54.969,119.975,108.889,173.929c113.885,113.956,286.602,181.294,567.832,221.382
		c71.718,10.223,173.441,22.59,185.812,22.59c11.019,0,2.429,4.341-60.701,30.673c-350.148,146.05-580.635,295.053-676.85,437.563
		c-117.813,174.5-80.46,369.734,85.401,446.366c37.396,17.278,91.949,30.565,145.451,35.428l-0.001-0.004
		C549.646,3735.858,633.666,3732.619,667.716,3728.071z"/>
	<path style="fill:#FFFFFF;" d="M2429.387,2652.9c-24.581,48.769-52.19,75.921-101.284,99.606
		c-24.657,11.895-58.108,22.98-61.094,20.245c-0.675-0.619,1.235-9.26,4.245-19.203c4.139-13.669,4.803-20.766,2.725-29.103
		c-4.793-19.225-29.687-30.45-47.096-21.237c-3.596,1.903-20.682,14.539-37.968,28.08c-37.142,29.095-74.108,53.426-103.696,68.251
		c-21.322,10.684-47.794,19.112-50.748,16.158c-3.619-3.619,10.712-28.606,52.951-92.324c49.675-74.936,53.446-83.917,40.623-96.74
		c-10.066-10.066-27.108-10.491-38.334-0.953c-13.584,11.542-69.841,89.352-83.059,114.881
		c-12.342,23.836-12.967,24.478-29.665,30.448c-61.891,22.127-150.754,38.158-199.22,35.94l-20.526-0.94l46.376-42.527
		c90.577-83.061,209.986-219.193,318.578-363.197c107.959-143.164,166.359-249.276,191.847-348.58
		c9.956-38.787,11.329-107.94,2.761-138.971c-6.375-23.089-20.246-51.825-31.719-65.718l-8.364-10.126l-13.544,17.533
		l-13.544,17.534l10.134,18.437c45.59,82.941,9.156,215.514-106.872,388.879c-84.292,125.945-252.786,325.78-356.101,422.336
		c-45.65,42.664-44.387,41.992-31.805,16.925c8.382-16.701,10.852-25.223,10.844-37.416c-0.027-38.035-32.805-57.286-78.289-45.98
		c-41.08,10.211-101.049,45.695-149.905,88.7l-17.278,15.209l-8.214-5.935c-20.742-14.986-49.813-50.977-64.231-79.519
		c-47.394-93.823-42.896-215.697,12.377-335.335c75.047-162.438,290.597-377.972,462.698-462.661
		c68.497-33.706,122.065-46.566,183.344-44.014l36.674,1.527l13.463-14.974c7.405-8.235,13.464-16.112,13.464-17.503
		c0-10.214-86.762-15.182-134.13-7.679c-124.825,19.77-275.341,116.031-431.633,276.046
		c-80.026,81.932-137.539,159.501-176.276,237.749c-66.08,133.477-73.732,264.06-21.805,372.105
		c17.572,36.562,35.116,60.382,65.093,88.377l22.417,20.935l-12.09,18.707c-13.275,20.538-23.976,51.002-23.976,68.255
		c0,18.699,13.479,41.095,33.683,55.969l0.001,0.001c16.418,12.086,19.311,13.148,35.798,13.148
		c35.346,0,88.776-22.801,146.034-62.32l28.436-19.626l35.92,0.671c67.854,1.269,136.213-8.612,216.264-31.262
		c6.16-1.743,6.735-0.908,6.735,9.782c0,18.135,11.137,37.103,26.939,45.882c11.13,6.184,17.37,7.456,35.92,7.322
		c13.397-0.097,29.087-2.379,38.912-5.66c24.009-8.018,66.261-29.698,98.527-50.555c26.572-17.176,28.37-17.884,31.429-12.375
		c6.259,11.273,22.988,25.146,34.016,28.209c28.202,7.832,67.269-0.985,118.892-26.834c60.372-30.231,87.856-56.93,115.573-112.27
		c18.896-37.728,21.108-50.705,10.579-62.061C2465.562,2616.287,2443.625,2624.65,2429.387,2652.9z M1566.483,2862.555
		L1566.483,2862.555c-20.517,6.093-32.763,6.167-35.048,0.215c-2.341-6.102,5.943-27.274,17.498-44.719
		c11.19-16.894,2.051-18.126,84.73,11.423C1638.034,2831.035,1585.485,2856.912,1566.483,2862.555z M1728.2,2726.688
		c-8.164,20.705-8.499,22.993-4.311,29.444c2.498,3.847,4.097,7.344,3.553,7.772c-0.543,0.428-11.514,9.066-24.381,19.197
		c-12.867,10.13-24.989,18.317-26.939,18.188c-8.856-0.578-58.915-14.935-72.391-20.761l-14.967-6.471l14.967-13.686
		c39.121-35.775,98.544-72.085,120.106-73.39c10.892-0.659,11.647-0.156,12.407,8.278
		C1736.688,2700.198,1733.069,2714.341,1728.2,2726.688z"/>
	<path style="fill:#FFFFFF;" d="M2652.647,2746.285c-4.099,2.533-3.356,15.614,0.974,17.166c5.605,2.01,13.143-2.742,38.025-23.97
		c29.517-25.182,34.214-32.717,32.368-51.921c-3.42-35.599-43.798-50.161-90.598-32.675
		c-39.705,14.836-101.287,58.186-124.924,87.941c-34.764,43.762-35.457,89.492-1.694,111.823
		c11.569,7.652,14.585,8.224,42.595,8.077c24.802-0.129,34.388-1.615,54.091-8.383c35.438-12.173,93.847-41.145,127.793-63.387
		l29.887-19.582l11.527,10.414c18.138,16.386,38.923,17.643,78.358,4.739c29.67-9.709,95.37-43.367,122.483-62.749
		c13.601-9.722,25.814-17.005,27.14-16.186c4.982,3.079,2.022,16.593-10.846,49.523c-21.078,53.938-24.393,89.463-10.818,115.93
		c11.232,21.898,25.99,30.247,53.466,30.247c28.849,0,85.289-19.714,132.849-46.402c20.539-11.526,23.475-12.423,26.939-8.233
		c2.139,2.586,10.624,7.842,18.855,11.68c32.747,15.267,72.954,5.477,144.884-35.278c32.783-18.574,36.013-18.805,36.208-2.585
		c0.331,27.534,19.546,73.964,40.543,97.967c32.211,36.823,102.224,65.291,180.96,73.582l0.001,0.001
		c5.762,0.606,24.184,1.318,40.937,1.582l30.462,0.479l9.199-16.079c5.06-8.844,9.2-17.408,9.2-19.032
		c0-1.778-16.103-3.094-40.491-3.309c-63.474-0.56-115.344-10.947-155.569-31.155c-36.488-18.33-55.234-40.074-66.782-77.461
		c-6.609-21.398-11.253-65.13-7.441-70.078c1.311-1.702,11.813-9.688,23.337-17.744c68.526-47.911,164.86-128.28,241.048-201.1
		c193.353-184.808,283.892-322.524,284.207-432.296c0.236-82.717-57.038-107.248-138.429-59.292
		c-82.754,48.759-202.984,178.895-298.683,323.292c-54.92,82.868-93.259,157.034-122.811,237.578
		c-7.853,21.402-15.387,38.863-16.743,38.797c-1.357-0.063-8.242-1.975-15.301-4.249c-10.099-3.254-16.556-3.442-30.3-0.886
		c-53.206,9.895-133.061,57.184-160.502,95.048c-7.159,9.877-15.899,20.894-19.422,24.48
		c-16.117,16.405-123.726,61.514-135.744,56.903c-5.751-2.207-2.043-20.963,12.834-64.919
		c19.649-58.056,19.072-76.256-3.182-100.399l-12.03-13.051l8.709-12.869c28.178-41.641,33.869-61.556,20.967-73.366
		c-17.002-15.562-31.174-10.696-61.24,21.028c-26.761,28.235-33.796,41.392-33.796,63.21v16.496l-23.198,16.406
		c-48.368,34.205-138.439,70.706-145.657,59.028c-1.015-1.643,0.867-9.87,4.183-18.282c8.31-21.082,7.826-31.185-1.858-38.802
		c-13.715-10.788-22.462-8.269-46.6,13.422c-42.785,38.447-106.124,74.961-162.967,93.951c-27.363,9.141-57.927,12.31-57.927,6.005
		c0-18.578,65.928-76.023,111.719-97.343c15.791-7.352,28.965-9.433,28.965-4.576
		C2682.805,2708.525,2656.837,2743.695,2652.647,2746.285z M3478.449,2602.468c73.858-177.13,248.742-406.589,371.733-487.737
		c32.511-21.45,48.975-28.603,65.843-28.603c17.807,0,22.59,9.09,21.984,41.777c-1.076,58.026-26.544,115.817-86.457,196.188
		c-75.537,101.331-217.596,238.838-354.576,343.216c-40.843,31.122-53.879,40.127-53.879,37.219
		C3443.097,2698.771,3466.669,2630.721,3478.449,2602.468z M3255.767,2795.135c7.271-5.542,15.502-13.905,18.292-18.584
		c9.192-15.419,67.452-49.082,99.304-57.378c9.412-2.452,18.177-4.457,19.477-4.457c2.804,0,3.157,15.405,0.512,22.3
		c-3.556,9.267-88.315,55.523-123.396,67.341h0C3239.078,2814.758,3234.192,2811.582,3255.767,2795.135z"/>
	<path style="fill:#FFFFFF;" d="M3909.967,3935.143l0-0.003c36.396,12.408,89.436,8.227,146.255-11.531
		c131.616-45.766,329.95-185.394,619.857-436.381c109.808-95.066,159.056-140.832,259.414-241.07
		c167.788-167.587,277.386-292.37,399.733-455.116c147.577-196.306,275.143-414.718,363.936-623.112
		c112.35-263.682,165.398-506.325,143.074-654.427c-11.698-77.605-48.337-141.776-99.9-174.962
		c-101.573-65.373-315.241-58.916-445.857,13.474c-38.963,21.594-102.946,72.402-106.912,84.898
		c-3.097,9.756,6.119,20.626,17.486,20.626c7.653,0,14.911-4.303,33.605-19.923c60.172-50.274,114.612-76.403,192.672-92.472
		c67.843-13.966,122.601-15.627,187.373-5.685c116.059,17.816,169.759,80.76,181.083,212.254
		c14.456,167.862-69.726,467.529-210.247,748.432c-120.751,241.384-284.667,477.997-494.107,713.249
		c-109.946,123.497-262.944,274.939-388.18,384.234c-294.143,256.704-506.192,410.149-643.031,465.315
		c-72.488,29.223-129.698,31.034-156.912,4.967c-21.837-20.916-26.68-74.499-12.464-137.885
		c35.029-156.184,173.146-425.113,356.956-695.031c124.986-183.537,206.252-290.994,412.291-545.164
		c59.519-73.423,101.055-129.276,110.532-148.63c10.727-21.907,9.344-39.056-4.244-52.644c-8.32-8.32-11.285-9.364-26.585-9.364
		c-19.122,0-2.125-9.203-192.193,104.066c-110.656,65.944-229.13,144.156-384.636,253.919c-29.634,20.917-54.4,37.53-55.037,36.919
		c-0.637-0.612,9.465-12.354,22.449-26.096c140.562-148.759,302.888-354.176,383.346-485.106
		c71.491-116.338,103.107-199.218,103.501-271.332c0.357-65.231-24.297-113.833-78.305-154.37
		c-126.618-95.033-387.906-118.389-750.106-67.048c-333.648,47.293-615.306,149.218-894.997,323.875
		c-191.287,119.452-325.218,240.308-376.64,339.871c-31.064,60.147-30.502,101.851,1.852,137.251
		c34.544,37.797,100.195,52.355,207.78,46.077c67.616-3.946,75.129-4.707,181.975-18.418
		c111.836-14.352,143.292-16.553,170.025-11.897c14.683,2.557,21.753,2.614,26.241,0.212c9.71-5.197,6.199-15.395-7.69-22.339
		c-18.471-9.236-100.886-8.253-193.066,2.302c-98.757,11.309-149.113,14.873-209.529,14.826
		c-76.512-0.058-116.708-8.803-141.74-30.836c-25.971-22.86-26.628-51.35-2.306-99.915c19.517-38.972,47.365-75.58,90.14-118.499
		c96.416-96.74,241.48-200.011,408.608-290.886c213.767-116.234,443.032-193.489,694.439-234.002
		c409.291-65.955,709.481-32.88,801.225,88.281c27.565,36.404,33.877,83.29,19.07,141.66
		c-24.143,95.173-114.188,235.364-275.095,428.291c-85.823,102.902-132.062,152.616-292.32,314.293
		c-75.065,75.73-140.802,143.296-146.083,150.148c-18.847,24.453-22.812,43.287-12.631,59.985
		c7.478,12.263,20.364,18.871,36.64,18.787c25.774-0.131,44.184-11.827,215.769-137.066
		c142.156-103.76,225.974-162.831,317.931-224.067c96.17-64.041,206.608-132.264,209.329-129.312
		c0.563,0.611-23.261,30.744-52.943,66.963c-353.475,431.319-606.415,828.903-706.492,1110.505
		c-31.667,89.108-39.586,127.804-39.511,193.066c0.051,43.731,0.825,51.446,6.763,67.349
		C3846.142,3895.702,3872.924,3922.513,3909.967,3935.143z"/>
</g>
</svg>
