<?xml version="1.0" encoding="iso-8859-1"?>
<!-- Generator: Adobe Illustrator 24.1.2, SVG Export Plug-In . SVG Version: 6.00 Build 0)  -->
<svg version="1.1" id="Layer_1" xmlns="http://www.w3.org/2000/svg" xmlns:xlink="http://www.w3.org/1999/xlink" x="0px" y="0px"
	 viewBox="0 0 7500 5000" style="enable-background:new 0 0 7500 5000;" xml:space="preserve">
<rect style="fill:none;" width="7500" height="5000"/>
<g>
	<g>
		<path style="fill:#FFFFFF;" d="M5752.196,686.321c-45.484-38.463-84.946-55.374-154.152-66.063
			c-169.581-26.193-446.244,50.332-593.417,164.137c-51.272,39.647-106.392,102.251-105.419,119.731
			c1.644,29.544,21.464,24.788,58.25-13.974c93.997-99.05,216.67-163.489,384.976-202.227
			c173.382-39.906,299.816-26.547,375.942,39.722c125.963,109.658,126.544,383.644,1.662,784.01
			c-96.155,308.268-276.292,733.428-451.933,1066.651c-283.938,538.681-641.479,994.875-971.116,1239.07
			c-161.143,119.374-301.225,166.301-383.513,128.478c-177.31-81.499-95.945-595.235,197.36-1246.107
			c94.122-208.865,190.41-390.97,380.095-718.862c48.882-84.499,88.532-159.845,88.109-167.438
			c-0.422-7.594-9.38-21.51-19.905-30.925c-28.603-25.586-46.985-15.62-124.002,67.233
			c-206.424,222.067-814.622,764.281-835.918,745.23c-9.234-8.261,209.387-303.818,618.945-836.76
			c86.192-112.158,107.865-149.279,110.093-188.57c3.287-57.966-28.356-61.679-238.273-27.956
			c-144.477,23.21-201.793,29.37-202.218,21.736c-0.133-2.378,30.028-49.779,67.023-105.335
			c111.299-167.138,160.52-274.449,183.385-399.811c49.295-270.267-117.598-466.146-430.335-505.07
			c-78.682-9.794-263.66-1.002-353.076,16.781c-516.31,102.682-1125.557,443.511-1459.095,816.257
			c-154.978,173.193-240.422,341.856-260.774,514.75c-19.559,166.167,34.791,320.226,151.922,430.63
			c151.863,143.143,370.99,212.1,755.857,237.863c66.916,4.479,124.572,8.803,128.126,9.606
			c3.552,0.803-40.053,24.429-96.902,52.502c-131.921,65.145-297.097,159.615-390.906,223.574
			c-207.772,141.657-316.468,261.966-364.183,403.091c-16.839,49.805-18.166,62.503-14.267,136.665
			c4.071,77.454,5.632,84.213,29.66,128.409c65.3,120.106,187.714,173.76,374.973,164.348
			c133.488-6.709,268.617-43.198,421.477-113.812c266.658-123.185,603.548-367.342,777.901-563.779
			c85.849-96.721,119.577-176.626,86.012-203.768c-20.783-16.806-41.938-2.799-46.307,30.659
			c-14.698,112.551-394.716,437.201-713.869,609.859c-185.757,100.494-327.235,148.936-476.068,163.01
			c-111.586,10.553-163.035,6.515-224.828-17.647c-82.391-32.216-127.001-88.276-137.217-172.441
			c-19.486-160.54,79.911-299.985,337.52-473.512c139.291-93.828,250.158-152.91,531.552-283.272
			c89-41.23,161.405-79.07,168.021-87.804c16.051-21.198,12.802-58.307-6.471-73.892c-13.416-10.848-32.566-12.309-140.355-10.718
			c-430.593,6.362-707.929-39.899-877.229-146.327c-256.41-161.188-286.602-471.476-76.44-785.588
			c249.208-372.473,866.174-772.867,1406.627-912.863c497.95-128.985,846.418-6.133,863.704,304.502
			c3.529,63.42-19.282,176.195-47.821,236.413c-34.259,72.29-124.773,222.265-188.729,312.712l-56.42,79.789l-87.086,4.846
			c-222.104,12.411-347.783,61.583-437.192,171.049c-60.783,74.422-81.79,153.482-69.775,262.62
			c9.488,86.18,28.621,135.598,62.913,162.483c30.761,24.119,57.302,21.741,97.147-8.702
			c74.055-56.583,346.933-370.574,440.689-507.089l34.45-50.159l67.259-8.571c36.993-4.714,120.679-17.776,185.968-29.028
			c65.291-11.252,122.121-20.647,126.291-20.879c12.705-0.707,2.78,41.012-17.702,74.406
			c-20.358,33.192-141.996,198.056-209.577,284.055c-105.225,133.902-340.428,468.44-423.964,603.016
			c-52.577,84.701-60.521,110.663-41.68,136.201c18.9,25.618,49.422,20.232,111.097-19.611
			c80.466-51.98,335.409-266.99,583.302-491.93c57.174-51.882,105.325-93.104,107.002-91.605
			c1.676,1.499-6.699,19.134-18.609,39.188c-34.706,58.438-140.633,256.169-192.699,359.708
			c-196.339,390.442-332.419,784.771-376.915,1092.213c-10.826,74.798-7.312,251.141,5.999,300.984
			c27.818,104.174,93.049,168.603,184.463,182.197l0.002,0.017c102.309,15.214,265.548-55.377,425.808-184.136
			c359.44-288.787,721.039-774.657,1012.993-1361.126c210.521-422.885,390.818-889.981,451.431-1169.513
			C5900.393,993.717,5874.317,789.588,5752.196,686.321z M3400.896,2039.774c-20.566,18.037-47.334,38.63-59.489,45.759v-0.001
			c-27.142,15.923-25.077,15.877-40.247,0.881c-17.745-17.542-32.432-104.757-26.821-159.268
			c12.922-125.569,101.449-222.157,245.735-268.109c47.795-15.222,246.504-44.02,256.502-37.174
			C3781.953,1625.541,3441.951,2003.765,3400.896,2039.774z"/>
	</g>
	<g>
		<path style="fill:#FFFFFF;" d="M2219.056,4345.88h-84.102v78.003h93.732v23.433h-121.659v-216.354h116.844v23.433h-88.917v68.373
			h84.102V4345.88z"/>
		<path style="fill:#FFFFFF;" d="M2346.169,4233.851c17.013-2.567,37.236-4.493,59.385-4.493c40.125,0,68.694,9.309,87.633,26.964
			c19.26,17.654,30.495,42.692,30.495,77.682c0,35.31-10.914,64.199-31.137,84.102c-20.223,20.223-53.607,31.137-95.658,31.137
			c-19.902,0-36.594-0.963-50.718-2.567V4233.851z M2374.096,4425.167c7.062,1.284,17.334,1.605,28.248,1.605
			c59.706,0,92.127-33.384,92.127-91.806c0.321-51.039-28.569-83.46-87.633-83.46c-14.445,0-25.359,1.284-32.742,2.889V4425.167z"/>
		<path style="fill:#FFFFFF;" d="M2676.473,4447.316l-54.891-216.354h29.532l25.68,109.461c6.42,26.964,12.198,53.928,16.05,74.793
			h0.642c3.531-21.507,10.272-47.188,17.655-75.114l28.89-109.14h29.211l26.322,109.782c6.099,25.68,11.877,51.359,15.087,74.15
			h0.642c4.494-23.754,10.593-47.829,17.334-74.793l28.569-109.14h28.569l-61.311,216.354h-29.211l-27.285-112.671
			c-6.741-27.605-11.235-48.792-14.124-70.619h-0.642c-3.852,21.507-8.667,42.692-16.692,70.619l-30.816,112.671H2676.473z"/>
		<path style="fill:#FFFFFF;" d="M3010.635,4379.264l-22.47,68.052h-28.89l73.509-216.354h33.705l73.83,216.354h-29.853
			l-23.112-68.052H3010.635z M3081.575,4357.436l-21.186-62.273c-4.814-14.124-8.025-26.964-11.235-39.483h-0.642
			c-3.21,12.84-6.741,26.001-10.914,39.162l-21.186,62.595H3081.575z"/>
		<path style="fill:#FFFFFF;" d="M3253.311,4233.851c14.124-2.889,34.348-4.493,53.607-4.493c29.853,0,49.112,5.457,62.595,17.654
			c10.914,9.63,17.013,24.396,17.013,41.088c0,28.569-17.976,47.508-40.767,55.212v0.963c16.691,5.778,26.643,21.187,31.779,43.656
			c7.062,30.174,12.197,51.039,16.691,59.385h-28.89c-3.531-6.099-8.346-24.717-14.445-51.681
			c-6.42-29.854-17.976-41.088-43.335-42.051h-26.321v93.731h-27.928V4233.851z M3281.238,4332.398h28.568
			c29.854,0,48.792-16.371,48.792-41.088c0-27.927-20.223-40.125-49.755-40.445c-13.481,0-23.112,1.283-27.605,2.567V4332.398z"/>
		<path style="fill:#FFFFFF;" d="M3507.22,4233.851c17.014-2.567,37.236-4.493,59.386-4.493c40.124,0,68.693,9.309,87.632,26.964
			c19.261,17.654,30.495,42.692,30.495,77.682c0,35.31-10.914,64.199-31.137,84.102c-20.223,20.223-53.606,31.137-95.657,31.137
			c-19.902,0-36.595-0.963-50.719-2.567V4233.851z M3535.147,4425.167c7.062,1.284,17.334,1.605,28.247,1.605
			c59.706,0,92.127-33.384,92.127-91.806c0.321-51.039-28.568-83.46-87.633-83.46c-14.444,0-25.358,1.284-32.741,2.889V4425.167z"/>
		<path style="fill:#FFFFFF;" d="M3975.231,4447.316l-54.891-216.354h29.531l25.68,109.461
			c6.421,26.964,12.198,53.928,16.051,74.793h0.642c3.531-21.507,10.272-47.188,17.655-75.114l28.89-109.14H4068l26.322,109.782
			c6.099,25.68,11.877,51.359,15.087,74.15h0.642c4.494-23.754,10.593-47.829,17.334-74.793l28.569-109.14h28.568l-61.311,216.354
			h-29.211l-27.285-112.671c-6.741-27.605-11.234-48.792-14.124-70.619h-0.642c-3.853,21.507-8.667,42.692-16.692,70.619
			l-30.815,112.671H3975.231z"/>
		<path style="fill:#FFFFFF;" d="M4320.625,4230.962v216.354h-27.928v-216.354H4320.625z"/>
		<path style="fill:#FFFFFF;" d="M4450.629,4230.962h27.928v192.921h92.447v23.433h-120.375V4230.962z"/>
		<path style="fill:#FFFFFF;" d="M4679.497,4413.29c12.519,7.704,30.816,14.124,50.076,14.124c28.568,0,45.261-15.087,45.261-36.914
			c0-20.224-11.556-31.779-40.767-43.015c-35.311-12.519-57.139-30.815-57.139-61.311c0-33.705,27.928-58.743,69.979-58.743
			c22.148,0,38.198,5.137,47.828,10.594l-7.703,22.79c-7.063-3.852-21.508-10.271-41.088-10.271
			c-29.532,0-40.768,17.655-40.768,32.421c0,20.223,13.161,30.174,43.014,41.729c36.595,14.124,55.212,31.779,55.212,63.559
			c0,33.384-24.717,62.273-75.756,62.273c-20.864,0-43.655-6.099-55.211-13.803L4679.497,4413.29z"/>
		<path style="fill:#FFFFFF;" d="M5107.709,4336.892c0,74.472-45.261,113.955-100.473,113.955
			c-57.138,0-97.263-44.298-97.263-109.782c0-68.693,42.693-113.634,100.473-113.634
			C5069.511,4227.431,5107.709,4272.693,5107.709,4336.892z M4939.827,4340.423c0,46.224,25.038,87.633,69.015,87.633
			c44.298,0,69.336-40.767,69.336-89.88c0-43.014-22.47-87.954-69.015-87.954
			C4962.938,4250.222,4939.827,4292.916,4939.827,4340.423z"/>
		<path style="fill:#FFFFFF;" d="M5225.195,4447.316v-216.354h30.495l69.336,109.461c16.05,25.358,28.569,48.149,38.841,70.299
			l0.643-0.321c-2.568-28.89-3.21-55.212-3.21-88.917v-90.521h26.321v216.354h-28.248l-68.693-109.781
			c-15.087-24.075-29.532-48.792-40.446-72.226l-0.963,0.321c1.605,27.285,2.247,53.286,2.247,89.238v92.447H5225.195z"/>
	</g>
</g>
</svg>
